<?xml version="1.0" encoding="UTF-8"?>
<svg xmlns="http://www.w3.org/2000/svg" xmlns:xlink="http://www.w3.org/1999/xlink" viewBox="0 0 120 120" width="120px" height="120px">
<g id="surface5922965">
<path style=" stroke:none;fill-rule:nonzero;fill:rgb(100%,100%,100%);fill-opacity:1;" d="M 60.015625 12 C 33.5 12 12 33.492188 12 60 C 12 86.507812 33.5 108 60.015625 108 C 100.054688 108 109.078125 70.828125 105.320312 52 L 60 52 L 60 68 L 90.953125 68 C 87.394531 81.792969 74.902344 92 60 92 C 42.328125 92 28 77.671875 28 60 C 28 42.328125 42.328125 28 60 28 C 68.035156 28 75.355469 30.984375 80.976562 35.875 L 92.34375 24.515625 C 83.808594 16.738281 72.46875 12 60.015625 12 Z M 60.015625 12 "/>
</g>
</svg>
